<svg xmlns="http://www.w3.org/2000/svg" viewBox="0 0 24 24" fill="currentColor"><path id="c" d="M18.55,12.76c.02-1.87,1-3.6,2.6-4.58-1.01-1.44-2.64-2.32-4.4-2.38-1.85-.19-3.64,1.11-4.59,1.11s-2.41-1.09-3.98-1.06c-2.06.07-3.93,1.21-4.93,3.01-2.13,3.69-.54,9.11,1.5,12.1,1.02,1.46,2.22,3.09,3.78,3.03,1.53-.06,2.1-.97,3.94-.97s2.36.97,3.96.94c1.64-.03,2.67-1.47,3.66-2.94.73-1.04,1.3-2.19,1.67-3.41-1.95-.82-3.22-2.73-3.22-4.85Z"/><path id="d" d="M15.53,3.85C16.43,2.77,16.87,1.39,16.76,0c-1.37.14-2.63.8-3.54,1.83-.9,1.02-1.35,2.35-1.26,3.7,1.38.01,2.7-.61,3.57-1.69Z"/></svg>