<svg xmlns="http://www.w3.org/2000/svg" viewBox="0 0 24 24" fill="currentColor"><path d="M19,12.2v-7c0-1.66-1.34-3-3-3H4c-1.66,0-3,1.34-3,3v12.58c0,.6.49,1,1.01,1,.25,0,.5-.09.7-.3l2.99-3c.19-.19.44-.29.71-.29h9.59c1.66,0,3-1.34,3-3ZM4.29,14.08l-1.29,1.29V5.2c0-.55.45-1,1-1h12c.55,0,1,.45,1,1v7c0,.55-.45,1-1,1H6.41c-.8,0-1.55.31-2.12.88Z"/><path d="M20,8.21v2c.55,0,1,.45,1,1v7.16l-.28-.28c-.57-.57-1.32-.88-2.13-.88h-7.59c-.55,0-1-.45-1-1.01h-2c0,1.66,1.34,3.01,3,3.01h7.59c.27,0,.52.11.71.3l1.99,1.99c.2.2.45.3.7.3.51,0,1.01-.4,1.01-1v-9.58c0-1.66-1.34-3-3-3Z"/></svg>