<svg xmlns="http://www.w3.org/2000/svg" viewBox="0 0 24 24" fill="currentColor"><path d="M3.31,4.37c.07.14.08.29.02.43-.7,1.88-.89,3.92-.53,5.89.02.14,0,.29-.1.41l-1.76,2.37c-.05.07-.07.16-.04.24.07.21.18.41.33.57.26.28.49.27.62.49.11.16.16.44-.06.98-.05.11,0,.24.09.32l.23.17c.1.08.14.21.08.32l-.18.41h0c-.04.09-.03.19.02.26l.28.4c.05.08.08.17.09.26.02.2.03.39.04.6.04.98-.11,1.14-.03,1.34.35.92,3.77-.45,4.97.83.38.41.63,1.18.29,2.73h0c-.04.15,0,.31.09.43s.23.2.39.2h5.52c.18,0,.34-.11.43-.26.09-.16.1-.35.02-.5-.46-.86-.62-1.85-.45-2.81.08-.38.22-.74.43-1.07.07-.11.16-.2.27-.26l2.29-1.31h0c.58-.33,1.04-.83,1.33-1.44.59-1.21.89-2.52.91-3.86,0-.61-.28-1.28.05-1.61.15-.16.2-.27.51-.2.48.09.95-.19,1.1-.65l.57-1.57c.08-.19.25-.32.45-.33.35-.03.69-.17.95-.41,1.16-1.09.55-4.32-.92-4.78-.52-.12-1.06,0-1.49.31-.07.04-.14.05-.21.02-.07-.02-.13-.08-.15-.15-.28-.89-1.01-1.55-1.91-1.76-.62-.11-1.27.02-1.79.38-.16.1-.36.1-.52,0C13.88.72,12.02.13,10.08.01,7.63-.11,3.56.54,3.04,2.66h0c-.11.59-.02,1.19.26,1.71h0Z"/></svg>