<svg xmlns="http://www.w3.org/2000/svg" viewBox="0 0 24 24" fill="currentColor"><path d="M20.16,12.75c-.12-.09-.19-.24-.19-.39v-.71c0-.15.07-.3.19-.39l2.09-1.64c.19-.15.25-.43.12-.64l-2.57-4.45c-.09-.16-.26-.25-.43-.25-.06,0-.12.01-.19.04l-2.45.99c-.06.02-.12.03-.18.03-.09,0-.19-.03-.27-.08-.19-.12-.39-.24-.6-.34-.14-.07-.24-.21-.26-.37l-.37-2.62c-.03-.25-.24-.43-.49-.43h-5.14c-.25,0-.46.18-.49.43l-.37,2.62c-.02.16-.12.29-.26.37-.21.11-.41.22-.6.34-.08.05-.17.08-.27.08-.06,0-.12-.01-.18-.03l-2.45-.99c-.06-.02-.12-.04-.19-.04-.17,0-.34.09-.43.25l-2.57,4.45c-.12.21-.07.49.12.64l2.09,1.64c.12.09.19.24.19.39v.71c0,.15-.07.3-.19.39l-2.09,1.64c-.19.15-.25.43-.12.64l2.57,4.45c.09.16.26.25.43.25.06,0,.12-.01.19-.04l2.45-.99c.06-.02.12-.03.18-.03.09,0,.19.03.27.08.19.12.39.24.6.34.14.07.24.21.26.37l.37,2.62c.03.25.24.43.49.43h5.14c.25,0,.46-.18.49-.43l.37-2.62c.02-.16.12-.29.26-.37.21-.11.41-.22.6-.34.08-.05.17-.08.27-.08.06,0,.12.01.18.03l2.45.99c.06.02.12.04.19.04.17,0,.34-.09.43-.25l2.57-4.45c.12-.21.07-.49-.12-.64l-2.09-1.64ZM18.73,17.34l-1.24-.5c-.3-.12-.61-.18-.92-.18-.47,0-.93.13-1.33.39-.15.09-.3.18-.45.26-.72.37-1.22,1.07-1.33,1.86l-.19,1.33h-2.53l-.19-1.33c-.11-.8-.61-1.49-1.33-1.86-.15-.08-.3-.16-.45-.26-.4-.25-.86-.39-1.33-.39-.32,0-.63.06-.92.18l-1.24.5-1.26-2.19,1.07-.84c.61-.48.96-1.19.96-1.97v-.71c0-.77-.35-1.49-.96-1.97l-1.07-.84,1.26-2.19,1.24.5c.29.12.61.18.92.18.47,0,.93-.13,1.33-.39.15-.09.3-.18.45-.25.72-.37,1.22-1.07,1.33-1.86l.19-1.33h2.53l.19,1.33c.11.8.61,1.49,1.33,1.86.15.08.3.16.45.26.4.25.86.39,1.33.39.32,0,.63-.06.92-.18l1.24-.5,1.26,2.19-1.07.84c-.61.48-.96,1.19-.96,1.97v.71c0,.77.35,1.49.96,1.97l1.07.84-1.26,2.19Z"/><path d="M12,7.5c-2.49,0-4.5,2.01-4.5,4.5s2.01,4.5,4.5,4.5,4.5-2.01,4.5-4.5-2.01-4.5-4.5-4.5ZM12,14.5c-1.38,0-2.5-1.12-2.5-2.5s1.12-2.5,2.5-2.5,2.5,1.12,2.5,2.5-1.12,2.5-2.5,2.5Z"/></svg>