<svg xmlns="http://www.w3.org/2000/svg" viewBox="0 0 24 24" fill="currentColor"><circle cx="12" cy="12" r="2.5"/><path d="M20.16,12.75c-.12-.09-.19-.24-.19-.39v-.71c0-.15.07-.3.19-.39l2.09-1.64c.19-.15.25-.43.12-.64l-2.57-4.45c-.12-.21-.39-.31-.62-.21l-2.45.99c-.15.06-.31.04-.44-.04-.19-.12-.39-.24-.6-.34-.14-.07-.24-.21-.26-.37l-.37-2.62c-.03-.25-.24-.43-.49-.43h-5.14c-.25,0-.46.18-.49.43l-.37,2.62c-.02.16-.12.29-.26.37-.21.11-.41.22-.6.34-.13.08-.3.1-.44.04l-2.45-.99c-.23-.09-.49,0-.62.21l-2.57,4.45c-.12.21-.07.49.12.64l2.09,1.64c.12.09.19.24.19.39v.71c0,.15-.07.3-.19.39l-2.09,1.64c-.19.15-.25.43-.12.64l2.57,4.45c.12.21.39.31.62.21l2.45-.99c.15-.06.31-.04.44.04.19.12.39.24.6.34.14.07.24.21.26.37l.37,2.62c.03.25.24.43.49.43h5.14c.25,0,.46-.18.49-.43l.37-2.62c.02-.16.12-.29.26-.37.21-.11.41-.22.6-.34.13-.08.3-.1.44-.04l2.45.99c.23.09.49,0,.62-.21l2.57-4.45c.12-.21.07-.49-.12-.64l-2.09-1.64ZM12,16.5c-2.48,0-4.5-2.02-4.5-4.5s2.02-4.5,4.5-4.5,4.5,2.02,4.5,4.5-2.02,4.5-4.5,4.5Z"/></svg>