<svg xmlns="http://www.w3.org/2000/svg" viewBox="0 0 24 24"><path d="M23.76,12.29c0-.81-.07-1.65-.21-2.43h-11.32v4.63h6.48c-.26,1.49-1.12,2.8-2.41,3.64l3.87,3.01c2.27-2.11,3.58-5.2,3.58-8.83h0v-.02Z" fill="#4280ef"/><path d="M12.23,24c3.24,0,5.96-1.07,7.95-2.9l-3.87-2.98c-1.07.73-2.46,1.15-4.08,1.15-3.13,0-5.77-2.11-6.74-4.94l-3.97,3.06c2.04,4.05,6.17,6.61,10.72,6.61h-.01Z" fill="#34a353"/><path d="M5.49,14.3c-.49-1.49-.49-3.11,0-4.6l-3.97-3.08c-1.71,3.39-1.71,7.39,0,10.77l3.97-3.08h0Z" fill="#f6b704"/><path d="M12.23,4.76c1.7-.02,3.37.63,4.6,1.81l3.43-3.45C18.09,1.07,15.21-.02,12.23,0,7.68,0,3.56,2.57,1.52,6.62l3.97,3.08c.97-2.85,3.61-4.94,6.74-4.94Z" fill="#e54335"/></svg>