<svg xmlns="http://www.w3.org/2000/svg" viewBox="0 0 24 24" fill="currentColor"><path d="M23.39,11.15l-1.76-1.54h0S11.97,1.11,11.97,1.11h0L.61,11.15c-.41.37-.45,1-.09,1.41.37.41,1,.45,1.41.09l.38-.34v6.88c0,2.04,1.66,3.7,3.7,3.7l3.96-.04v-6c0-1.1.9-2,2-2h0c1.1,0,2,.9,2,2v6h3.97c2.04,0,3.7-1.65,3.7-3.7v-6.88s.43.38.43.38c.41.36,1.05.32,1.41-.09.36-.41.32-1.05-.09-1.41ZM17.95,20.85h-1.97v-4c0-2.21-1.79-4-4-4s-4,1.79-4,4v4.02l-1.96.02c-.93,0-1.7-.76-1.7-1.7v-8.65s7.65-6.76,7.65-6.76l7.66,6.73v8.64c0,.93-.75,1.7-1.69,1.7Z"/></svg>