<svg id="a" xmlns="http://www.w3.org/2000/svg" viewBox="0 0 64 64"><path d="M32,1c17.09,0,31,13.91,31,31s-13.91,31-31,31S1,49.09,1,32,14.91,1,32,1M32,0C14.33,0,0,14.33,0,32s14.33,32,32,32,32-14.33,32-32S49.67,0,32,0h0Z" fill="currentColor" opacity="0.2"/><path d="M32,13c10.48,0,19,8.52,19,19s-8.52,19-19,19-19-8.52-19-19,8.52-19,19-19M32,12c-11.05,0-20,8.95-20,20s8.95,20,20,20,20-8.95,20-20-8.95-20-20-20h0Z" fill="currentColor" opacity="0.2"/><line x1="30" y1="3.85" x2="6.11" y2="49.86" fill="none" stroke="currentColor" stroke-dasharray="4 3" stroke-miterlimit="10" opacity="0.2"/><line x1="32" y1="1" x2="32" y2="3" fill="none" stroke="currentColor" stroke-miterlimit="10" opacity="0.2"/><line x1="32" y1="5.95" x2="32" y2="59.53" fill="none" stroke="currentColor" stroke-dasharray="3.93 2.95" stroke-miterlimit="10" opacity="0.2"/><line x1="32" y1="61" x2="32" y2="63" fill="none" stroke="currentColor" stroke-miterlimit="10" opacity="0.2"/><line x1="34" y1="3.86" x2="57.8" y2="49.86" fill="none" stroke="currentColor" stroke-dasharray="4 3" stroke-miterlimit="10" opacity="0.2"/><path d="M29.79,10.2c-2.78,0-3.86,2.71-4.43,3.79-.43.82-14.07,27.1-14.65,28.14-.88,1.58-.85,2.49-.44,3.47.21.5.52,1.28,1.26,2.84.92,1.92,3.29,1.61,4.24.28.4-.57,13.61-21.64,14.59-23.28.9-1.5,1.64-1.44,1.64-1.44,0,0,.7-.09,1.64,1.44,1,1.62,14.19,22.71,14.59,23.28.95,1.33,3.32,1.65,4.24-.28.74-1.55,1.06-2.34,1.26-2.84.41-.98.44-1.89-.44-3.47-.58-1.04-14.21-27.32-14.65-28.14-.57-1.08-1.65-3.79-4.43-3.79h-4.42Z" fill="currentColor"/></svg>