<svg xmlns="http://www.w3.org/2000/svg" viewBox="0 0 24 24" fill="currentColor"><path d="M18.85,5.05c.23,1.31.5,2.63.67,3.95-.04.39-.46.71-.43,1.1.46,1.34,1.7,2.42,2.05,3.6,0,.16-.29.37-.6.48-.4.15-.74.13-.84.26,0,.43.29.8.32,1.1-.05.35-.42.41-.53.56-.02.23.36.46.32.71-.03.18-.31.43-.38.83-.11.55.21.84.17,1.25h0c0,.35-.13.68-.38.92-.26.23-.6.35-.95.31-1.01-.07-2.1-.2-2.99-.28h0c-.19-.02-.37.08-.45.25-.64,1.3.04,2.27.31,3.33.03.14,0,.29-.09.41-.09.11-.23.18-.37.18H5.18c-.17,0-.31-.08-.4-.21s-.1-.31-.03-.45c1.31-2.69,1.55-5.79.65-8.65-.44-1.25-1.26-1.71-1.85-3.24-.91-2.15-.93-4.55-.08-6.71,1-1.95,2.72-3.43,4.8-4.13,4.1-1.49,7.71.17,8.68.45h0c.32.09.65.02.91-.18.29-.23.29-.53.44-.53.2,0,.4.56.38,1.07-.02.32-.11.65-.29.92-.02.02,0,.05.03.03.23-.1.41-.28.52-.5.17-.35,0-.7.06-.74.19-.11.45.5.56,1.04h0c.05.21.05.43.03.64,0,.02.02.03.03.02.11-.05.2-.13.29-.22.19-.21.14-.53.23-.53.2.19.12.82-.09,1.45h0c-.22.64-.65,1.18-1.23,1.53h.02Z"/></svg>